<?xml version="1.0" encoding="UTF-8" standalone="no"?>
<svg
   xmlns:dc="http://purl.org/dc/elements/1.1/"
   xmlns:cc="http://creativecommons.org/ns#"
   xmlns:rdf="http://www.w3.org/1999/02/22-rdf-syntax-ns#"
   xmlns:svg="http://www.w3.org/2000/svg"
   xmlns="http://www.w3.org/2000/svg"
   xmlns:xlink="http://www.w3.org/1999/xlink"
   xmlns:sodipodi="http://sodipodi.sourceforge.net/DTD/sodipodi-0.dtd"
   xmlns:inkscape="http://www.inkscape.org/namespaces/inkscape"
   sodipodi:docname="sapi.svg"
   inkscape:version="1.0 (4035a4fb49, 2020-05-01)"
   id="svg8"
   version="1.1"
   viewBox="0 0 100 100"
   height="100mm"
   width="100mm">
  <defs
     id="defs2">
    <linearGradient
       id="linearGradient932"
       inkscape:collect="always">
      <stop
         id="stop928"
         offset="0"
         style="stop-color:#ffffff;stop-opacity:1" />
      <stop
         id="stop930"
         offset="1"
         style="stop-color:#4cab52;stop-opacity:1" />
    </linearGradient>
    <radialGradient
       inkscape:collect="always"
       xlink:href="#linearGradient932"
       id="radialGradient934-4"
       cx="69.276718"
       cy="92.242844"
       fx="69.276718"
       fy="92.242844"
       r="35.57505"
       gradientUnits="userSpaceOnUse"
       gradientTransform="matrix(-1.3869788,0,0,1.3869788,139.69327,-91.866463)" />
  </defs>
  <sodipodi:namedview
     inkscape:window-maximized="1"
     inkscape:window-y="-8"
     inkscape:window-x="-8"
     inkscape:window-height="987"
     inkscape:window-width="1680"
     showgrid="false"
     inkscape:document-rotation="0"
     inkscape:current-layer="layer1"
     inkscape:document-units="mm"
     inkscape:cy="121.75719"
     inkscape:cx="211.79305"
     inkscape:zoom="1"
     inkscape:pageshadow="2"
     inkscape:pageopacity="0.0"
     borderopacity="1.0"
     bordercolor="#666666"
     pagecolor="#ffffff"
     id="base" />
  <metadata
     id="metadata5">
    <rdf:RDF>
      <cc:Work
         rdf:about="">
        <dc:format>image/svg+xml</dc:format>
        <dc:type
           rdf:resource="http://purl.org/dc/dcmitype/StillImage" />
        <dc:title></dc:title>
      </cc:Work>
    </rdf:RDF>
  </metadata>
  <g
     id="layer1"
     inkscape:groupmode="layer"
     inkscape:label="Capa 1">
    <path
       inkscape:export-ydpi="120"
       inkscape:export-xdpi="120"
       d="M 0.73360733,50.33593 A 49.341844,49.341844 0 0 0 49.833024,99.713353 49.341844,49.341844 0 0 0 99.415246,50.820774 49.341844,49.341844 0 0 0 50.730349,1.0346022 49.341844,49.341844 0 0 0 0.7411129,49.510974"
       style="fill:url(#radialGradient934-4);fill-opacity:1;stroke:none;stroke-width:0.625248;stroke-linejoin:bevel"
       id="path926-7" />
    <path
       inkscape:export-ydpi="120"
       inkscape:export-xdpi="120"
       transform="scale(-1,1)"
       d="m -67.652502,28.820389 a 5.2573199,4.5715828 0 0 1 -5.231489,4.574879 5.2573199,4.5715828 0 0 1 -5.282932,-4.529958 5.2573199,4.5715828 0 0 1 5.187323,-4.61275 5.2573199,4.5715828 0 0 1 5.326299,4.491395"
       sodipodi:arc-type="arc"
       sodipodi:open="true"
       sodipodi:end="6.265732"
       sodipodi:start="6.2824523"
       sodipodi:ry="4.5715828"
       sodipodi:rx="5.2573199"
       sodipodi:cy="28.82374"
       sodipodi:cx="-72.909821"
       sodipodi:type="arc"
       id="path849"
       style="fill:#080000;fill-opacity:1;stroke:#000000;stroke-width:0.665033;stroke-linejoin:bevel" />
    <path
       inkscape:export-ydpi="120"
       inkscape:export-xdpi="120"
       sodipodi:nodetypes="ssscsssscsscsssccsscccccscscsssscssssssssssssscsssssssscssssssscscccsssssssssscssssssscssscscsssssssssscsscssccs"
       id="path847"
       d="m 73.43314,83.111576 c -0.380465,-0.34371 -1.246869,-0.980855 -1.92534,-1.415864 -1.268243,-0.813174 -3.543163,-3.375892 -3.253709,-3.66536 0.08922,-0.08922 0.891048,0.0068 1.781728,0.214604 0.890666,0.207296 3.225001,0.294024 5.187396,0.192736 1.962392,-0.10126 4.012257,-0.02928 4.555254,0.160019 1.321118,0.460542 2.919308,-0.147526 2.919308,-1.110729 0,-1.1916 -1.081778,-1.468862 -4.545937,-1.165136 -3.57892,0.313797 -6.189997,0.06103 -8.244225,-0.797889 -1.739513,-0.727377 -1.665238,-1.581699 0.224675,-2.584312 1.090613,-0.578565 1.344434,-0.905375 1.262906,-1.626129 -0.157624,-1.393614 -1.263549,-1.339372 -2.774571,0.136154 -1.643877,1.605207 -3.196497,1.989558 -4.311468,1.067324 -0.594726,-0.491934 -1.126766,-1.937505 -2.057991,-5.591631 -0.690759,-2.710489 -1.682302,-6.110192 -2.203436,-7.554901 l -0.947508,-2.626731 1.243161,-1.315343 c 0.683739,-0.723477 2.589169,-2.996906 4.234305,-5.052091 3.042965,-3.801473 4.691687,-5.261508 7.64204,-6.767513 2.545107,-1.299141 5.140041,-3.523568 6.079398,-5.211357 6.331214,-3.606636 4.865466,-1.936178 9.829411,-8.614043 1.572493,-2.221353 1.225228,-5.038997 -0.291959,-7.67551 0.571491,-1.029216 -6.287143,-2.514179 -7.2427,-2.643653 0.172152,-0.363339 -1.037468,-3.490699 -5.795648,-3.15906 -1.616134,-0.231676 -3.22359,0.270795 -4.681663,1.771585 -1.649789,1.698121 -1.897398,1.81591 -6.081825,2.892717 -10.315281,3.791208 -14.473048,1.272893 -22.972823,4.53955 -5.274236,2.027009 -10.368122,4.78139 -13.732927,6.621015 -3.138117,1.730384 -2.861889,1.63484 -5.723588,3.372041 -1.097398,0.666178 -2.269713,1.813598 -2.619321,3.363727 -0.282174,1.251139 -0.191368,1.55704 0.922467,3.107416 0.679511,0.945826 1.645834,2.647605 2.147401,3.781747 0.960453,2.171744 2.365069,6.873748 2.332365,7.807696 -0.01095,0.302699 -0.424924,-0.822192 -0.920716,-2.499759 -1.294119,-4.378738 -3.801746,-9.035715 -5.944878,-11.040366 -1.487758,-1.391616 -2.003871,-1.658752 -3.204872,-1.658752 -1.154052,0 -1.613212,0.215917 -2.368846,1.113931 -1.013738,1.204778 -1.148168,2.308268 -0.580358,4.764217 0.196322,0.849149 0.619261,3.135632 0.939887,5.081073 0.633013,3.84106 2.509091,8.219305 4.999668,11.667818 0.757044,1.048221 1.306572,2.234402 1.306572,2.820316 0,1.379123 -1.120444,3.44386 -2.683656,4.945439 -1.293093,1.242107 -1.644958,2.297239 -0.916282,2.7476 0.571642,0.353289 2.151725,-0.138904 2.151725,-0.670246 0,-0.254478 0.651692,-1.099057 1.448213,-1.876831 1.019417,-0.995443 1.46087,-1.740759 1.491002,-2.517329 0.03462,-0.891815 0.09989,-0.79102 0.340946,0.526047 0.739678,4.041965 0.94666,6.389341 0.653511,7.411495 -0.536227,1.869715 -0.38249,3.387442 0.384721,3.798038 0.713296,0.381751 1.836778,0.154846 2.245486,-0.453523 0.125344,-0.186633 0.178656,-2.560898 0.118365,-5.276136 -0.0988,-4.448128 -0.07896,-4.641604 0.20029,-1.954596 0.170459,1.640197 0.411937,3.147236 0.536611,3.348963 0.336074,0.543795 1.116544,0.444957 1.660311,-0.210238 0.40578,-0.488936 0.32625,-0.848533 -0.520942,-2.355668 -1.038903,-1.848164 -1.455999,-4.660132 -0.729471,-4.917963 0.22384,-0.07937 0.913025,0.28138 1.53152,0.801803 1.355587,1.140655 2.714171,1.093036 2.883768,-0.101123 0.136017,-0.957484 -1.03659,-1.539292 -3.102312,-1.539292 -4.160974,0 -8.636936,-5.065502 -11.45602,-12.964907 -0.519438,-1.455547 -0.944443,-2.818975 -0.944443,-3.029842 0,-0.210854 1.135975,1.91561 2.524376,4.725513 2.738213,5.541671 4.678769,8.051391 7.069975,9.14362 4.194649,1.916007 7.033863,-0.440838 7.052035,-5.853949 0.01847,-5.514262 -2.240998,-10.06164 -6.517518,-13.116838 -0.750941,-0.536488 -0.661339,-0.526526 0.551635,0.0613 3.359322,1.627909 5.568878,4.501263 6.419437,9.074968 0.492787,2.853814 6.600906,3.874517 10.782159,3.865746 2.37566,0 7.269509,-0.790145 9.231207,-1.650487 1.409036,-0.617975 1.470517,-0.719919 2.111316,-3.501428 0.708972,-3.077352 2.433229,-4.798297 3.524595,-5.785967 0.458011,-0.414497 0.274538,0.181488 -0.576718,1.873396 -1.847137,3.671298 -2.482422,4.844275 -2.254518,9.699456 0.194242,4.138163 1.765007,14.851548 2.64463,16.552556 1.011904,1.956799 2.707561,2.982004 6.820067,4.123439 1.82906,0.507656 2.564647,1.004009 5.132702,3.463387 1.648722,1.578947 3.269486,2.73512 3.527153,2.870823 0.325507,0.17143 2.242818,0.430095 2.515545,-0.08402 0.388854,-0.733083 -0.004,-0.938669 -1.033054,-1.872712 z M 70.738195,31.659709 c -1.539471,-0.796089 -2.324981,-2.422355 -2.031296,-3.858789 0.143822,-0.703449 1.049338,-0.904214 1.748994,-1.396812 2.05695,-1.448211 4.28307,-1.205653 5.858905,-0.841427 1.741662,0.402554 1.471813,2.496776 0.67856,4.02534 -1.184987,2.283418 -4.026105,3.224374 -6.255163,2.071688 z M 84.71486,23.597275 c 0,-0.199127 0.31623,-0.362047 0.702733,-0.362047 0.386505,0 0.803427,0.16292 0.926496,0.362047 0.126903,0.205339 -0.177267,0.36206 -0.702735,0.36206 -0.509572,0 -0.926494,-0.162933 -0.926494,-0.36206 z m -8.259975,33.536308 c 0.637199,-0.637187 0.560168,-1.179436 -0.27491,-1.935179 -1.004229,-0.90881 -2.575199,-3.802513 -2.303233,-4.242543 0.662666,-1.072236 7.530013,2.173674 10.31796,4.876884 1.50934,1.46347 2.465907,1.687693 3.364843,0.788762 0.869107,-0.869114 0.711943,-1.156405 -1.150805,-2.10364 -1.601108,-0.8142 -7.331529,-4.812966 -7.331529,-5.116036 0,-0.07471 0.750033,0.19598 1.66674,0.601486 1.388575,0.614225 1.91728,0.676897 3.167945,0.375511 0.825662,-0.198976 1.999241,-0.281654 2.607952,-0.183732 1.314231,0.211415 2.147415,-0.566702 1.795175,-1.676514 -0.277554,-0.874491 -0.924024,-0.91739 -3.543393,-0.235129 -1.940536,0.505439 -3.05712,0.428126 -6.237496,-0.431929 -0.796511,-0.215397 -2.244419,-0.474089 -3.21757,-0.574884 -1.252805,-0.129723 -2.06041,-0.462089 -2.766276,-1.138343 -0.952558,-0.912601 -1.044663,-0.930417 -2.069909,-0.400238 -1.488922,0.769947 -7.535375,7.476972 -6.730247,7.465519 0.16608,-0.0027 1.198045,-0.244817 2.293243,-0.538787 4.20405,-1.128408 5.618806,-0.60388 7.181114,2.662364 0.756811,1.582246 1.181529,2.068281 1.879103,2.150384 0.495697,0.05829 1.103781,-0.09647 1.351293,-0.343956 z"
       style="fill:#292822;fill-opacity:1;stroke-width:0.36205" />
    <path
       inkscape:export-ydpi="120"
       inkscape:export-xdpi="120"
       sodipodi:nodetypes="ssscs"
       d="m 75.21665,28.229147 c 0.220724,0.0099 0.405613,-0.222415 0.413036,-0.518811 0.0074,-0.296394 -0.165429,-0.544789 -0.386145,-0.554903 -0.220715,-0.01013 -0.405775,0.221879 -0.413212,0.518801 -0.0074,0.296924 0.165597,0.545091 0.386321,0.554913 z"
       style="fill:#ffffff;fill-opacity:1;stroke:none;stroke-width:0.665033;stroke-linejoin:bevel"
       id="path851" />
    <path
       inkscape:export-ydpi="120"
       inkscape:export-xdpi="120"
       id="path870"
       d="m 34.115373,55.814367 c 0.792052,0.150823 0.624784,-0.120417 1.152039,-0.384009 0.315271,-0.157637 -0.115546,0.371557 0.384013,-0.12808 0.03016,-0.0301 -0.04267,-0.127944 0,-0.127944 0.04267,0 0,0.170665 0,0.127944 0,-0.6632 -0.0092,-0.521244 -0.384013,-0.89603 -0.185905,-0.185908 -0.372825,-0.628826 -0.640019,-0.89603 -0.34095,-0.340945 -1.137831,-0.559421 -1.664059,-0.384008 -0.22409,0.07471 -0.619269,1.300797 -0.384012,1.536049 0.03016,0.0301 0.08533,0 0.127998,0 0.04267,0.04269 0.09454,0.07786 0.128012,0.12808 0.07485,0.112207 0.03258,0.288605 0.127998,0.384009 0.03016,0.0301 0.09784,-0.0301 0.128012,0 0.448716,0.44872 0.246326,0.640019 1.024031,0.640019 z"
       style="fill:#831404;fill-opacity:1;stroke:none;stroke-width:0.36205px;stroke-linecap:butt;stroke-linejoin:miter;stroke-opacity:1" />
    <path
       inkscape:export-ydpi="120"
       inkscape:export-xdpi="120"
       d="m 46.634339,49.512068 c 0.04965,0.0027 0.09862,0.0082 0.147084,0.01697 0.31662,0.06062 0.534307,0.12726 0.813909,0.284268 0.0459,0.02559 0.05686,0.0977 0.106063,0.116723 0.06943,0.02709 0.154197,-0.01793 0.222744,0.01095 0.171756,0.0728 0.691452,0.713556 0.830878,0.866938 0.131939,0.145117 0.05012,-0.04584 0.223454,0.01095 0.179744,0.05829 0.446516,0.412704 0.64773,0.478016 0.506846,0.164507 1.079578,-0.01095 1.571953,-0.148496 0.333514,-0.09387 0.784339,-0.361978 1.125753,-0.170419 0.211044,0.118502 0.285644,0.314112 0.424984,0.467412 0.04841,0.05309 0.106063,0.331518 0.114561,0.40801 0.03352,0.306011 0.06394,0.527826 -0.148498,0.775722 -0.01571,0.01669 -0.05597,1.92e-4 -0.06789,0.01916 -0.02578,0.0457 -0.004,0.10865 -0.02969,0.15486 -0.03968,0.07075 -0.675677,0.236005 -0.796935,0.297705 -0.259761,0.132459 -0.364846,0.395887 -0.516206,0.511966 -0.13224,0.101671 -0.262218,0.02737 -0.301236,0.231941 -0.03175,0.165341 0.184486,0.378344 0.152738,0.543781 -0.0099,0.05186 -0.106624,0.05501 -0.116668,0.10605 -0.01327,0.06938 0.0607,0.13328 0.05728,0.203642 -0.0092,0.191149 -0.05969,0.209239 -0.127287,0.329534 -0.01136,0.02121 0.02369,0.04488 0.01909,0.06787 0.01419,0.05049 -0.004,0.108787 -0.02969,0.15486 -0.149259,0.265931 -0.711676,0.157131 -0.932705,0.335883 -0.10683,0.08607 -0.181279,0.207515 -0.282852,0.299826 -0.164556,0.149455 -0.676311,0.32328 -0.894519,0.471654 -0.20327,0.137919 -0.544163,0.07211 -0.74744,0.210019 -0.02875,0.01943 -0.05267,0.04516 -0.07778,0.06924 -2.157129,0.45994 -4.709334,0.786326 -6.232653,0.786326 -0.95136,0.0014 -2.003379,-0.05282 -3.065408,-0.166874 -0.05638,-0.182268 -0.118693,-0.353904 -0.160519,-0.427112 -0.09621,-0.168352 -0.246394,-0.130134 -0.367,-0.263044 -0.03172,-0.03462 -0.0063,-0.101397 -0.03819,-0.136428 -0.202824,-0.223074 -0.239941,-0.07471 -0.49287,-0.447611 -0.152785,-0.225222 -0.03394,0.213289 -0.193755,-0.166176 -0.05582,-0.132597 -0.486541,-1.648873 -0.410135,-1.718332 0.130352,-0.118775 0.64129,-0.134511 0.70996,-0.346487 0.0147,-0.04502 -0.05289,-0.09086 -0.03819,-0.135744 0.01641,-0.05022 0.09097,-0.06076 0.116682,-0.106734 0.04695,-0.08402 -0.109292,-0.314604 -0.04668,-0.426401 0.06719,-0.119323 0.198679,-0.191067 0.282146,-0.299826 v -0.0014 c 0.452423,-0.282858 0.622967,-0.70172 0.858456,-1.121512 0.190667,-0.339988 0.04038,0.0055 0.184563,-0.125891 0.06277,-0.05706 0.102711,-0.135743 0.165467,-0.193038 0.191663,-0.174249 0.785948,-0.210457 1.038775,-0.218503 0.132282,-0.0041 0.313536,0.0936 0.46529,0.08908 0.688936,-0.01984 1.321221,-0.0055 1.99906,-0.195172 0.422615,-0.118776 1.372832,-0.276071 1.699941,-0.478017 0.52925,-0.326195 1.391604,-1.058333 2.136242,-1.026053 z"
       style="fill:#831404;fill-opacity:1;stroke-width:0.36205"
       id="path847-1" />
    <path
       inkscape:export-ydpi="120"
       inkscape:export-xdpi="120"
       sodipodi:nodetypes="scssccsscsssscccsscccccsccscsscscsssscsssscsccscssssccscscsccscssssssscsssscsccssssscssscscscsscscccscccccscscscssscsscscsccscscscsccssccscccsccsscsscsscsss"
       d="m 86.138192,49.22427 c 0.560411,0.01095 0.68857,0.147895 0.69723,1.0013 -0.102067,-0.0041 -0.206282,-0.01232 -0.315379,-0.03038 -0.608712,-0.09798 -1.782234,-0.01519 -2.607899,0.183855 -1.062333,0.256011 -1.608729,0.244941 -2.598703,-0.139301 0.03853,-0.137714 0.07422,-0.246021 0.09334,-0.284254 0.376692,-0.753389 -0.01245,0.193517 0.36205,-0.181037 0.0954,-0.09538 0.08562,-0.266642 0.181026,-0.362046 0.301708,-0.301701 0.853238,0.07759 1.267177,0.181023 0.783758,0.413648 1.537022,-0.362046 2.172305,-0.362046 0.309605,0 0.555032,-0.01095 0.748853,-0.0068 z m -10.273193,0.347911 c 0.03621,0.0014 0.07336,0.0082 0.111016,0.02121 0.549652,0.183213 1.093861,0.02805 1.629229,0.181037 0.599093,0.239631 0.850827,0.347583 0.994934,0.411541 -0.170146,-0.08758 -0.313461,-0.202808 0.453269,-0.04954 1.637434,0.327481 -0.491704,0.01711 0.543077,0.362047 0.114492,0.03818 0.261636,-0.06691 0.362052,0 0.112275,0.07485 0.08562,0.266656 0.181024,0.36206 0.08533,0.08539 0.25411,-0.05392 0.362051,0 0.753385,0.376701 -0.193524,-0.01232 0.181025,0.362046 0.211558,0.211552 0.676211,0.49519 0.905127,0.724106 0.08533,0.08539 -0.05397,0.254095 0,0.362047 0.177909,0.355806 0.86119,0.499144 1.086153,0.724106 0.04267,0.04269 -0.04267,0.138343 0,0.181023 0.311256,0.311252 0.602323,0.210649 0.905128,0.362046 0.249471,0.12466 0.243525,0.424568 0.36205,0.543084 0.230482,0.23049 1.016516,0.473432 1.267179,0.724092 0.127998,0.127944 -0.05724,0.371338 0,0.543083 0.06251,0.18751 0.272254,0.363484 0.36205,0.54307 0.06481,0.129586 0.07551,0.609176 0.01908,0.98221 -0.412221,-0.214028 -0.869228,-0.569807 -1.394462,-1.079078 -2.1035,-2.039572 -6.526604,-4.38521 -8.857517,-4.954867 -0.0874,-0.479933 -0.160993,-1.284158 -0.08555,-1.284158 0.06035,0 -0.06035,0.181023 0,0.181023 0.144177,0 0.359611,-0.215643 0.613083,-0.202233 z m -4.319155,1.207775 c 0.301415,0.0096 0.532859,0.0327 0.62864,0.0806 0.194595,0.09729 0.389233,0.208213 0.543076,0.36206 0.640244,0.640239 0.05694,0.628484 0.362051,1.086153 0.09468,0.141997 0.267379,0.220036 0.362051,0.362046 0.169515,0.254273 -0.138741,0.808673 0,1.086153 0.243526,0.487048 1.202892,1.778116 1.629229,1.991282 0.235543,0.117818 0.53716,0.08169 0.724101,0.362046 0.106022,0.159034 0.263823,0.812887 0.264467,1.252329 -0.283832,0.103313 -0.642379,0.151439 -0.956041,0.114534 -0.697571,-0.0821 -1.122036,-0.568138 -1.878845,-2.150384 -1.46913,-3.071441 -2.809366,-3.717564 -6.45964,-2.845494 0.09915,-0.801707 0.59821,-0.972988 1.06494,-1.439715 0.04267,-0.04269 -0.04267,-0.138371 0,-0.181037 0.09033,-0.09031 0.763385,0 0.905127,0 0.374358,0 1.9066,-0.107555 2.810844,-0.0806 z m 9.615565,0.292053 c 0.153216,0.110155 0.317895,0.225031 0.479431,0.339414 -0.150472,0.01095 -0.378062,0.02915 -0.415085,-0.0082 -0.0551,-0.05515 -0.07039,-0.180038 -0.06434,-0.331641 z m -55.23751,15.637479 c 0.346606,0.0027 0.855491,0.216067 0.994225,0.262346 0.49757,0.165834 1.234017,-0.214179 1.629229,0.181023 0.04267,0.04269 -0.04267,0.138343 0,0.181037 0.11816,0.118091 0.470578,0.08566 0.654801,0.267286 -0.463414,0.626595 -1.570143,0.486377 -2.675075,-0.44337 -0.206762,-0.173976 -0.416198,-0.319093 -0.618737,-0.446899 0.0056,-6.9e-5 0.0099,-0.0014 0.01557,-0.0014 z m -7.086863,0.107554 c 0.09227,0.0041 0.191326,0.04913 0.296994,0.15486 0.706495,0.706495 -0.0419,0.09716 0.181026,0.543083 0.06052,0.121102 0.156525,0.232283 0.258102,0.341534 -0.234095,0.338757 -0.546751,0.698559 -0.958161,1.100302 -0.796522,0.777774 -1.448203,1.622955 -1.448203,1.877433 0,0.475937 -1.265878,0.918061 -1.941075,0.751679 0.150088,-0.233719 0.141342,-0.568384 0.287802,-0.81249 0.135155,-0.225249 0.585566,-0.404548 0.724101,-0.543083 0.228918,-0.228917 0.331519,-0.874587 0.543077,-1.086153 0.04267,-0.04269 0.138358,0.04269 0.181025,0 0.0907,-0.09072 0.06234,-0.605426 0.181026,-0.724092 0.374548,-0.374554 -0.01463,0.572353 0.362051,-0.181037 0.228001,-0.456 -0.687553,0.156666 0.36205,-0.54307 0.05021,-0.03339 0.138359,0.04269 0.181026,0 0.117914,-0.117954 0.389284,-0.89425 0.789159,-0.878966 z m 2.107249,0.15486 c 0.143658,0 0.914927,1.829854 1.086152,2.172305 0.145403,0.290809 0.233928,0.467864 0.362051,0.724107 0.240557,0.481109 0,1.620875 0,2.172305 0,0.181023 0.127998,0.415126 0,0.543069 -0.317982,0.317985 -0.484522,0.425978 -0.724102,0.90513 -0.196333,0.392671 0.304821,1.686461 0,1.991282 -0.0954,0.09538 -0.266647,0.08566 -0.362051,0.181023 -0.144756,0.144761 -0.192542,1.074576 -0.313257,1.93329 -0.305582,-0.698202 -0.280549,-1.863735 0.107487,-3.216722 0.272346,-0.949629 0.106569,-3.06267 -0.510549,-6.596118 0.09083,-0.443903 0.209666,-0.809671 0.354274,-0.809671 z m 50.443868,4.299358 c 0.0018,0.01478 0.0053,0.02737 0.0071,0.04242 0.08153,0.72074 -0.172322,1.047127 -1.262936,1.625692 -1.454067,0.771384 -1.828863,1.455027 -1.13424,2.060577 -1.039053,-0.983606 -0.493671,-1.342423 -0.444061,-2.416261 0.08533,-0.08539 0.254108,0.05392 0.36205,0 0.753384,-0.376688 -0.193523,0.01232 0.181026,-0.362046 0.09052,-0.09059 0.452563,0.09045 0.543076,0 0.04267,-0.04269 -0.04267,-0.138371 0,-0.181037 0.383516,-0.383516 1.114287,-0.776871 1.748025,-0.769358 z m -3.307291,5.745053 c 0.30359,0.246282 0.320078,-0.1994 0.654138,-0.08799 1.011375,0.337129 2.31617,0.252959 3.258458,0.724107 0.721915,0.360951 4.682885,-0.385829 5.068713,0 0.04267,0.04269 -0.04267,0.138357 0,0.181023 0.141645,0.141641 0.553105,0.112618 0.724102,0.181023 0.279111,0.11166 0.446857,0.230176 0.569241,0.410145 -0.879639,-0.04434 -2.015649,-0.0442 -3.132591,0.01368 -1.962395,0.10126 -4.296136,0.01423 -5.186802,-0.193038 -0.890678,-0.207761 -1.692752,-0.303479 -1.781967,-0.214261 -0.12466,0.12466 0.237954,0.676487 0.779256,1.323033 -0.293812,-0.174865 -0.574198,-0.347911 -0.66046,-0.434173 -0.168567,-0.168571 -0.09787,-0.459927 -0.362051,-0.724093 -0.04267,-0.04269 -0.138358,0.04269 -0.181026,0 -0.0269,-0.02696 -0.173857,-0.798492 -0.205026,-0.923179 m -3.817135,-0.03284 c 0.02451,0.0055 0.0396,0.0208 0.0396,0.0509 0,0.08279 -0.203544,0.01464 -0.308307,-0.01095 0.09105,-0.01492 0.206806,-0.0546 0.268706,-0.04023 z m -0.268706,0.04023 c -0.01712,0.0027 -0.03942,0.01095 -0.05374,0.01095 -0.02686,-0.02682 0.0056,-0.02217 0.05374,-0.01095 z m -0.05374,0.01095 c 0.31955,0.319544 1.004677,0.280573 1.267179,0.543069 0.174726,0.174729 0.245043,0.500582 0.543076,0.724107 0.266328,0.199742 0.684714,0.503673 0.905127,0.724106 0.199298,0.199277 2.64e-4,0.796877 0.154154,1.041598 -1.107593,-0.905923 -1.849023,-1.251713 -3.063996,-1.588923 -1.719326,-0.477196 -3.011855,-0.935056 -4.012966,-1.448199 0.294503,-0.01232 0.61952,0.0041 0.948969,0.0041 h 2.353331 z m 3.083088,2.95792 c 0.01481,-0.0041 0.05766,0.06514 0.17537,0.300538 0.02715,0.05432 0.0302,0.09072 0.02545,0.119459 -0.08967,-0.078 -0.167684,-0.139547 -0.252443,-0.21073 0.07709,4.1e-5 0.02748,-0.202069 0.05162,-0.209308 z m 0.592576,0.772191 c 0.444838,0.202589 0.967273,0.401593 1.393049,0.614499 0.107938,0.05392 0.261636,-0.06691 0.362051,0 0.448515,0.299005 0.902973,0.481287 1.267178,0.724093 0.213012,0.142011 0.314097,0.428591 0.543077,0.543083 0.107938,0.05391 0.276715,-0.08539 0.36205,0 0.667755,0.667757 -0.433509,0.07307 0.543076,0.724107 0.225065,0.150029 0.503577,0.141518 0.724103,0.362046 0.482588,0.482587 0.814886,0.874806 1.043017,1.294749 -0.605573,-0.0027 -1.268457,-0.120281 -1.448203,-0.214959 -0.257669,-0.135744 -1.878447,-1.291301 -3.527169,-2.870249 -0.48455,-0.464045 -0.888498,-0.83983 -1.262229,-1.177369 z"
       style="fill:#831404;fill-opacity:1;stroke:none;stroke-width:0.36205px;stroke-linecap:butt;stroke-linejoin:miter;stroke-opacity:1"
       id="path891" />
    <rect
       inkscape:export-ydpi="120"
       inkscape:export-xdpi="120"
       y="-0.37417734"
       x="-0.37417734"
       height="101.02788"
       width="100.27953"
       id="rect969"
       style="fill:#4cab52;fill-opacity:0;stroke:none;stroke-width:0.486;stroke-linejoin:bevel" />
  </g>
</svg>
